<svg width="64" height="64" viewBox="0 0 64 64" fill="none" xmlns="http://www.w3.org/2000/svg">
<path d="M64 49.5898C61.672 50.1818 60.232 49.6158 58.94 47.6758L49.752 34.9638L48.424 33.2038L37.694 47.7178C36.468 49.4638 35.182 50.2238 32.894 49.6058L46.634 31.1618L33.842 14.5018C36.042 14.0738 37.562 14.2918 38.912 16.2618L48.442 29.1318L58.042 16.3318C59.272 14.5858 60.594 13.9218 62.802 14.5658L57.842 21.1418L51.122 29.8918C50.322 30.8918 50.432 31.5758 51.168 32.5418L64 49.5898ZM0.016 30.8538L1.14 25.3258C4.2 14.3858 16.74 9.83977 25.388 16.5998C30.442 20.5758 31.698 26.1998 31.448 32.4998H2.96C2.532 43.8398 10.694 50.6838 21.1 47.1918C24.75 45.9658 26.9 43.1078 27.976 39.5318C28.522 37.7398 29.426 37.4598 31.11 37.9718C30.25 42.4438 28.31 46.1798 24.21 48.5178C18.084 52.0178 9.34 50.8858 4.74 46.0218C2 43.1998 0.868 39.6238 0.36 35.7998C0.28 35.1678 0.12 34.5658 0 33.9598C0.0106667 32.9251 0.016 31.8904 0.016 30.8558V30.8538ZM3.012 30.0938H28.756C28.588 21.8938 23.482 16.0698 16.504 16.0198C8.844 15.9598 3.344 21.6458 3.012 30.0938Z" fill="white"/>
</svg>
