<svg width="402" height="402" viewBox="0 0 402 402" fill="none" xmlns="http://www.w3.org/2000/svg">
<g clip-path="url(#clip0_247_26)">
<path d="M187.836 0.10818C186.971 0.18676 184.221 0.461793 181.745 0.658245C124.648 5.80529 71.1654 36.609 37.2921 83.9539C18.4299 110.279 6.36598 140.139 1.80762 171.768C0.196481 182.809 0 186.07 0 201.039C0 216.009 0.196481 219.27 1.80762 230.311C12.732 305.788 66.4498 369.202 139.305 392.698C152.351 396.902 166.105 399.77 181.745 401.499C187.836 402.167 214.164 402.167 220.255 401.499C247.252 398.513 270.122 391.834 292.678 380.322C296.136 378.553 296.804 378.082 296.333 377.689C296.018 377.453 281.282 357.69 263.599 333.802L231.455 290.386L191.176 230.782C169.013 198.014 150.779 171.218 150.622 171.218C150.465 171.179 150.308 197.66 150.229 229.996C150.111 286.614 150.072 288.893 149.365 290.229C148.343 292.154 147.557 292.94 145.907 293.804C144.649 294.433 143.549 294.551 137.615 294.551H130.817L129.009 293.411C127.83 292.665 126.966 291.682 126.377 290.543L125.551 288.775L125.63 209.998L125.748 131.181L126.966 129.649C127.595 128.824 128.931 127.763 129.874 127.252C131.485 126.466 132.114 126.388 138.912 126.388C146.928 126.388 148.265 126.702 150.347 128.981C150.937 129.609 172.746 162.456 198.839 202.022C224.931 241.587 260.612 295.611 278.138 322.132L309.968 370.342L311.579 369.281C325.844 360.008 340.934 346.807 352.88 333.055C378.304 303.862 394.691 268.265 400.192 230.311C401.804 219.27 402 216.009 402 201.039C402 186.07 401.804 182.809 400.192 171.768C389.268 96.2911 335.55 32.8764 262.695 9.38072C249.845 5.21593 236.17 2.34773 220.845 0.618955C217.072 0.226051 191.097 -0.206144 187.836 0.10818ZM270.122 121.673C272.008 122.616 273.541 124.423 274.091 126.309C274.405 127.331 274.484 149.176 274.405 198.407L274.287 269.051L261.83 249.956L249.334 230.861V179.508C249.334 146.308 249.491 127.645 249.727 126.741C250.356 124.541 251.731 122.812 253.618 121.791C255.229 120.965 255.818 120.887 261.988 120.887C267.804 120.887 268.825 120.965 270.122 121.673Z" fill="white"/>
</g>
<defs>
<clipPath id="clip0_247_26">
<rect width="402" height="402" fill="white"/>
</clipPath>
</defs>
</svg>
