<svg width="20" height="20" viewBox="0 0 20 20" fill="none" xmlns="http://www.w3.org/2000/svg">
<g id="nextjs-old-white 1" clip-path="url(#clip0_82_9)">
<g id="Clip path group">
<mask id="mask0_82_9" style="mask-type:luminance" maskUnits="userSpaceOnUse" x="0" y="0" width="20" height="20">
<g id="clip0_247_26">
<path id="Vector" d="M20 0H0V20H20V0Z" fill="white"/>
</g>
</mask>
<g mask="url(#mask0_82_9)">
<g id="Group">
<path id="Vector_2" d="M9.34507 0.00538209C9.30204 0.00929154 9.16522 0.0229748 9.04204 0.0327485C6.20139 0.28882 3.54057 1.82134 1.85533 4.17681C0.91691 5.48652 0.316715 6.97209 0.0899313 8.54567C0.00977517 9.09498 0 9.25721 0 10.0019C0 10.7467 0.00977517 10.909 0.0899313 11.4583C0.633433 15.2133 3.30596 18.3683 6.9306 19.5372C7.57965 19.7464 8.26393 19.8891 9.04204 19.9751C9.34507 20.0083 10.6549 20.0083 10.958 19.9751C12.3011 19.8265 13.4389 19.4942 14.5611 18.9215C14.7331 18.8335 14.7664 18.81 14.7429 18.7905C14.7273 18.7788 13.9941 17.7955 13.1144 16.6071L11.5152 14.4471L9.51124 11.4817C8.40861 9.85144 7.50144 8.51831 7.49363 8.51831C7.48582 8.51637 7.47801 9.83383 7.47408 11.4426C7.46821 14.2594 7.46627 14.3728 7.4311 14.4393C7.38025 14.535 7.34114 14.5741 7.25905 14.6171C7.19647 14.6484 7.14174 14.6543 6.84652 14.6543H6.50831L6.41836 14.5976C6.3597 14.5604 6.31672 14.5115 6.28741 14.4549L6.24632 14.3669L6.25025 10.4477L6.25612 6.52642L6.31672 6.4502C6.34801 6.40915 6.41448 6.35637 6.46139 6.33095C6.54154 6.29184 6.57284 6.28796 6.91105 6.28796C7.30985 6.28796 7.37637 6.30358 7.47995 6.41697C7.5093 6.44821 8.59433 8.08239 9.89249 10.0508C11.1906 12.0193 12.9658 14.707 13.8377 16.0265L15.4213 18.425L15.5014 18.3722C16.2111 17.9108 16.9619 17.2541 17.5562 16.5699C18.8211 15.1175 19.6364 13.3465 19.91 11.4583C19.9902 10.909 20 10.7467 20 10.0019C20 9.25721 19.9902 9.09498 19.91 8.54567C19.3666 4.7906 16.694 1.63564 13.0694 0.466702C12.4301 0.259499 11.7498 0.116802 10.9873 0.0307938C10.7996 0.0112463 9.50731 -0.0102559 9.34507 0.00538209ZM13.4389 6.05338C13.5327 6.1003 13.609 6.1902 13.6364 6.28403C13.652 6.33488 13.6559 7.42169 13.652 9.871L13.6461 13.3856L13.0264 12.4356L12.4047 11.4856V8.93075C12.4047 7.27901 12.4125 6.3505 12.4242 6.30552C12.4555 6.19607 12.5239 6.11005 12.6178 6.05925C12.698 6.01816 12.7273 6.01428 13.0342 6.01428C13.3236 6.01428 13.3744 6.01816 13.4389 6.05338Z" fill="black"/>
</g>
</g>
</g>
</g>
<defs>
<clipPath id="clip0_82_9">
<rect width="20" height="20" fill="white"/>
</clipPath>
</defs>
</svg>
