<svg id="instagram-logo-svgrepo-com" xmlns="http://www.w3.org/2000/svg" width="21" height="21" viewBox="0 0 21 21">
  <path id="Path_16" data-name="Path 16" d="M15.2,0H5.8A5.8,5.8,0,0,0,0,5.8V15.2A5.8,5.8,0,0,0,5.8,21H15.2A5.8,5.8,0,0,0,21,15.2V5.8A5.8,5.8,0,0,0,15.2,0Zm3.932,15.2A3.937,3.937,0,0,1,15.2,19.137H5.8A3.936,3.936,0,0,1,1.863,15.2V5.8A3.936,3.936,0,0,1,5.8,1.863H15.2A3.937,3.937,0,0,1,19.137,5.8V15.2Z" fill="#fff"/>
  <path id="Path_17" data-name="Path 17" d="M46.379,40.97a5.411,5.411,0,1,0,5.411,5.411A5.417,5.417,0,0,0,46.379,40.97Zm0,8.959a3.548,3.548,0,1,1,3.548-3.548A3.552,3.552,0,0,1,46.379,49.929Z" transform="translate(-35.879 -35.881)" fill="#fff"/>
  <path id="Path_18" data-name="Path 18" d="M120.287,28.251a1.366,1.366,0,1,0,.966.4A1.372,1.372,0,0,0,120.287,28.251Z" transform="translate(-104.149 -24.742)" fill="#fff"/>
</svg>
