<svg width="222" height="222" viewBox="0 0 222 222" fill="none" xmlns="http://www.w3.org/2000/svg">
<path d="M195.571 0H26.4286C11.84 0 0 11.84 0 26.4286V195.571C0 210.16 11.84 222 26.4286 222H195.571C210.16 222 222 210.16 222 195.571V26.4286C222 11.84 210.16 0 195.571 0ZM68.7143 84.5714V185H37V84.5714H68.7143ZM37 55.3414C37 47.9414 43.3429 42.2857 52.8571 42.2857C62.3714 42.2857 68.3443 47.9414 68.7143 55.3414C68.7143 62.7414 62.7943 68.7143 52.8571 68.7143C43.3429 68.7143 37 62.7414 37 55.3414ZM185 185H153.286C153.286 185 153.286 136.054 153.286 132.143C153.286 121.571 148 111 134.786 110.789H134.363C121.571 110.789 116.286 121.677 116.286 132.143C116.286 136.953 116.286 185 116.286 185H84.5714V84.5714H116.286V98.1029C116.286 98.1029 126.487 84.5714 146.996 84.5714C167.98 84.5714 185 99.0014 185 128.231V185Z" fill="white"/>
</svg>
