<svg width="41" height="40" viewBox="0 0 41 40" fill="none" xmlns="http://www.w3.org/2000/svg">
<circle cx="20.0454" cy="20" r="20" fill="white"/>
<path d="M20.4998 0C9.20341 0 0.0454102 8.95446 0.0454102 20.0001C0.0454102 31.0463 9.20341 40 20.4998 40C31.7975 40 40.9545 31.0463 40.9545 20.0001C40.9545 8.95518 31.7975 0.000955321 20.4996 0.000955321L20.4998 0ZM29.8801 28.8459C29.7928 28.9858 29.6782 29.1074 29.5428 29.2039C29.4073 29.3004 29.2538 29.3698 29.0909 29.4082C28.928 29.4465 28.7589 29.4531 28.5934 29.4275C28.4279 29.402 28.2692 29.3447 28.1264 29.2591C23.3239 26.3907 17.2781 25.7411 10.1582 27.3317C9.8285 27.405 9.48254 27.3473 9.19633 27.1713C8.91012 26.9953 8.70709 26.7154 8.63186 26.3931C8.59439 26.2335 8.58947 26.0683 8.61741 25.9068C8.64534 25.7454 8.70557 25.5909 8.79464 25.4523C8.88372 25.3136 8.99989 25.1935 9.1365 25.0988C9.27312 25.0041 9.4275 24.9367 9.59079 24.9004C17.3824 23.1598 24.0659 23.9093 29.4575 27.1311C30.0584 27.4917 30.2489 28.2584 29.8801 28.8459ZM32.3837 23.4001C31.9221 24.1338 30.9402 24.3655 30.1903 23.9141C24.6922 20.6096 16.3112 19.6526 9.80793 21.5828C8.96453 21.8319 8.07374 21.3672 7.81776 20.5439C7.69562 20.1481 7.73898 19.7211 7.93834 19.3566C8.1377 18.992 8.47679 18.7196 8.88124 18.5991C16.3097 16.3952 25.5446 17.4628 31.8585 21.2566C32.6084 21.708 32.8453 22.6679 32.3837 23.4001ZM32.5986 17.7293C26.0063 13.9006 15.1297 13.5486 8.83556 15.4165C7.82485 15.7162 6.756 15.1583 6.44971 14.17C6.30243 13.6952 6.35403 13.1827 6.59317 12.745C6.83231 12.3074 7.23941 11.9806 7.72495 11.8364C14.9502 9.69173 26.9613 10.1061 34.5512 14.5118C34.7675 14.6369 34.9564 14.8025 35.1072 14.9992C35.2579 15.1958 35.3675 15.4196 35.4297 15.6577C35.4919 15.8958 35.5054 16.1436 35.4695 16.3868C35.4336 16.6301 35.3489 16.864 35.2204 17.0752C34.6831 17.9641 33.5058 18.2571 32.5996 17.7293H32.5986Z" fill="#1ED760"/>
</svg>
