<svg width="99" height="30" viewBox="0 0 99 30" fill="none" xmlns="http://www.w3.org/2000/svg">
<g clip-path="url(#clip0_217_25)">
<path fill-rule="evenodd" clip-rule="evenodd" d="M0.06318 15.9535L0 0.0229492L30 0.0623092V15.9535H23.8148V6.17634H6.18519V15.9535H0.06318Z" fill="white"/>
<path d="M30 23.8857H0V29.9998H30V23.8857Z" fill="white"/>
</g>
<path d="M53.48 23.24C52.4267 23.24 51.4467 23.0467 50.54 22.66C49.6467 22.2733 48.8667 21.74 48.2 21.06C47.5467 20.3667 47.0333 19.5533 46.66 18.62C46.2867 17.6867 46.1 16.66 46.1 15.54C46.1 14.4333 46.28 13.4133 46.64 12.48C47.0133 11.5333 47.5333 10.72 48.2 10.04C48.8667 9.34667 49.6467 8.81333 50.54 8.44C51.4333 8.05333 52.4133 7.86 53.48 7.86C54.5333 7.86 55.4733 8.04 56.3 8.4C57.14 8.76 57.8467 9.23333 58.42 9.82C58.9933 10.3933 59.4067 11.02 59.66 11.7L57.54 12.7C57.22 11.9 56.7067 11.2533 56 10.76C55.3067 10.2533 54.4667 10 53.48 10C52.4933 10 51.62 10.2333 50.86 10.7C50.1 11.1667 49.5067 11.8133 49.08 12.64C48.6667 13.4667 48.46 14.4333 48.46 15.54C48.46 16.6467 48.6667 17.62 49.08 18.46C49.5067 19.2867 50.1 19.9333 50.86 20.4C51.62 20.8533 52.4933 21.08 53.48 21.08C54.4667 21.08 55.3067 20.8333 56 20.34C56.7067 19.8467 57.22 19.2 57.54 18.4L59.66 19.4C59.4067 20.0667 58.9933 20.6933 58.42 21.28C57.8467 21.8667 57.14 22.34 56.3 22.7C55.4733 23.06 54.5333 23.24 53.48 23.24ZM61.8669 23V12.18H64.1269V23H61.8669ZM61.8669 10.7V8.1H64.1269V10.7H61.8669ZM66.7692 27V12.18H68.9292V14.42L68.6692 13.9C69.0692 13.2867 69.6026 12.8067 70.2692 12.46C70.9359 12.1133 71.6959 11.94 72.5492 11.94C73.5759 11.94 74.4959 12.1867 75.3092 12.68C76.1359 13.1733 76.7826 13.8467 77.2492 14.7C77.7292 15.5533 77.9692 16.5133 77.9692 17.58C77.9692 18.6467 77.7292 19.6067 77.2492 20.46C76.7826 21.3133 76.1426 21.9933 75.3292 22.5C74.5159 22.9933 73.5892 23.24 72.5492 23.24C71.7092 23.24 70.9426 23.0667 70.2492 22.72C69.5692 22.3733 69.0426 21.8733 68.6692 21.22L69.0292 20.8V27H66.7692ZM72.3292 21.14C72.9692 21.14 73.5359 20.9867 74.0292 20.68C74.5226 20.3733 74.9092 19.9533 75.1892 19.42C75.4826 18.8733 75.6292 18.26 75.6292 17.58C75.6292 16.9 75.4826 16.2933 75.1892 15.76C74.9092 15.2267 74.5226 14.8067 74.0292 14.5C73.5359 14.1933 72.9692 14.04 72.3292 14.04C71.7026 14.04 71.1359 14.1933 70.6292 14.5C70.1359 14.8067 69.7426 15.2267 69.4492 15.76C69.1692 16.2933 69.0292 16.9 69.0292 17.58C69.0292 18.26 69.1692 18.8733 69.4492 19.42C69.7426 19.9533 70.1359 20.3733 70.6292 20.68C71.1359 20.9867 71.7026 21.14 72.3292 21.14ZM84.6523 23.12C83.519 23.12 82.639 22.8 82.0123 22.16C81.3857 21.52 81.0723 20.62 81.0723 19.46V14.22H79.1723V12.18H79.4723C79.979 12.18 80.3723 12.0333 80.6523 11.74C80.9323 11.4467 81.0723 11.0467 81.0723 10.54V9.7H83.3323V12.18H85.7923V14.22H83.3323V19.36C83.3323 19.7333 83.3923 20.0533 83.5123 20.32C83.6323 20.5733 83.8257 20.7733 84.0923 20.92C84.359 21.0533 84.7057 21.12 85.1323 21.12C85.239 21.12 85.359 21.1133 85.4923 21.1C85.6257 21.0867 85.7523 21.0733 85.8723 21.06V23C85.6857 23.0267 85.479 23.0533 85.2523 23.08C85.0257 23.1067 84.8257 23.12 84.6523 23.12ZM91.2202 23.24C90.4868 23.24 89.8402 23.1133 89.2802 22.86C88.7335 22.5933 88.3068 22.2333 88.0002 21.78C87.6935 21.3133 87.5402 20.7667 87.5402 20.14C87.5402 19.5533 87.6668 19.0267 87.9202 18.56C88.1868 18.0933 88.5935 17.7 89.1402 17.38C89.6868 17.06 90.3735 16.8333 91.2002 16.7L94.9602 16.08V17.86L91.6402 18.44C91.0402 18.5467 90.6002 18.74 90.3202 19.02C90.0402 19.2867 89.9002 19.6333 89.9002 20.06C89.9002 20.4733 90.0535 20.8133 90.3602 21.08C90.6802 21.3333 91.0868 21.46 91.5802 21.46C92.1935 21.46 92.7268 21.3267 93.1802 21.06C93.6468 20.7933 94.0068 20.44 94.2602 20C94.5135 19.5467 94.6402 19.0467 94.6402 18.5V15.72C94.6402 15.1867 94.4402 14.7533 94.0402 14.42C93.6535 14.0733 93.1335 13.9 92.4802 13.9C91.8802 13.9 91.3535 14.06 90.9002 14.38C90.4602 14.6867 90.1335 15.0867 89.9202 15.58L88.0402 14.64C88.2402 14.1067 88.5668 13.64 89.0202 13.24C89.4735 12.8267 90.0002 12.5067 90.6002 12.28C91.2135 12.0533 91.8602 11.94 92.5402 11.94C93.3935 11.94 94.1468 12.1 94.8002 12.42C95.4668 12.74 95.9802 13.1867 96.3402 13.76C96.7135 14.32 96.9002 14.9733 96.9002 15.72V23H94.7402V21.04L95.2002 21.1C94.9468 21.54 94.6202 21.92 94.2202 22.24C93.8335 22.56 93.3868 22.8067 92.8802 22.98C92.3868 23.1533 91.8335 23.24 91.2202 23.24Z" fill="white"/>
<defs>
<clipPath id="clip0_217_25">
<rect width="30" height="30" fill="white"/>
</clipPath>
</defs>
</svg>
