<svg width="80" height="25" viewBox="0 0 80 25" fill="none" xmlns="http://www.w3.org/2000/svg">
<g clip-path="url(#clip0_85_201)">
<mask id="mask0_85_201" style="mask-type:luminance" maskUnits="userSpaceOnUse" x="0" y="0" width="25" height="25">
<path d="M24.2424 0H0V24.2424H24.2424V0Z" fill="white"/>
</mask>
<g mask="url(#mask0_85_201)">
<path fill-rule="evenodd" clip-rule="evenodd" d="M0.0510545 12.8917L0 0.0185547L24.2424 0.0503608V12.8917H19.2443V4.99099H4.99813V12.8917H0.0510545Z" fill="black"/>
<path d="M24.2424 19.3016H0V24.2423H24.2424V19.3016Z" fill="black"/>
</g>
<path d="M43.2162 18.7798C42.365 18.7798 41.5731 18.6236 40.8404 18.3111C40.1185 17.9986 39.4882 17.5677 38.9495 17.0182C38.4216 16.4579 38.0067 15.8006 37.7051 15.0465C37.4034 14.2923 37.2525 13.4626 37.2525 12.5576C37.2525 11.6633 37.398 10.839 37.6889 10.0848C37.9905 9.31982 38.4107 8.66261 38.9495 8.11312C39.4882 7.55285 40.1185 7.12187 40.8404 6.82019C41.5623 6.50773 42.3542 6.3515 43.2162 6.3515C44.0673 6.3515 44.8269 6.49696 45.495 6.78786C46.1737 7.07877 46.7448 7.46126 47.2081 7.93534C47.6714 8.39861 48.0054 8.90504 48.2101 9.45453L46.497 10.2626C46.2384 9.61615 45.8236 9.09356 45.2525 8.69494C44.6923 8.28548 44.0135 8.08079 43.2162 8.08079C42.4188 8.08079 41.7131 8.26932 41.099 8.64645C40.4849 9.02358 40.0054 9.54609 39.6606 10.2141C39.3266 10.8822 39.1596 11.6633 39.1596 12.5576C39.1596 13.4519 39.3266 14.2384 39.6606 14.9172C40.0054 15.5852 40.4849 16.1077 41.099 16.4848C41.7131 16.8511 42.4188 17.0343 43.2162 17.0343C44.0135 17.0343 44.6923 16.835 45.2525 16.4363C45.8236 16.0377 46.2384 15.5151 46.497 14.8687L48.2101 15.6768C48.0054 16.2155 47.6714 16.7218 47.2081 17.1959C46.7448 17.67 46.1737 18.0525 45.495 18.3434C44.8269 18.6343 44.0673 18.7798 43.2162 18.7798ZM49.9935 18.5858V9.84241H51.8197V18.5858H49.9935ZM49.9935 8.64645V6.54544H51.8197V8.64645H49.9935ZM53.9549 21.8182V9.84241H55.7004V11.6525L55.4903 11.2323C55.8135 10.7367 56.2445 10.3488 56.7832 10.0687C57.3219 9.78851 57.9361 9.64847 58.6256 9.64847C59.4553 9.64847 60.1987 9.84782 60.8559 10.2465C61.524 10.6451 62.0465 11.1892 62.4236 11.8788C62.8115 12.5683 63.0054 13.3441 63.0054 14.206C63.0054 15.068 62.8115 15.8438 62.4236 16.5333C62.0465 17.2229 61.5294 17.7723 60.8721 18.1818C60.2149 18.5804 59.466 18.7798 58.6256 18.7798C57.9468 18.7798 57.3274 18.6397 56.767 18.3596C56.2175 18.0794 55.792 17.6754 55.4903 17.1475L55.7812 16.8081V21.8182H53.9549ZM58.4478 17.0828C58.965 17.0828 59.4229 16.9589 59.8216 16.7111C60.2203 16.4633 60.5327 16.1239 60.759 15.6929C60.996 15.2511 61.1145 14.7555 61.1145 14.206C61.1145 13.6566 60.996 13.1663 60.759 12.7353C60.5327 12.3044 60.2203 11.965 59.8216 11.7172C59.4229 11.4693 58.965 11.3454 58.4478 11.3454C57.9415 11.3454 57.4836 11.4693 57.0741 11.7172C56.6755 11.965 56.3577 12.3044 56.1206 12.7353C55.8943 13.1663 55.7812 13.6566 55.7812 14.206C55.7812 14.7555 55.8943 15.2511 56.1206 15.6929C56.3577 16.1239 56.6755 16.4633 57.0741 16.7111C57.4836 16.9589 57.9415 17.0828 58.4478 17.0828ZM68.4059 18.6828C67.4901 18.6828 66.779 18.4242 66.2726 17.9071C65.7662 17.3899 65.513 16.6626 65.513 15.7252V11.4909H63.9776V9.84241H64.22C64.6295 9.84241 64.9473 9.72386 65.1736 9.48685C65.3998 9.24984 65.513 8.92661 65.513 8.51716V7.83837H67.3392V9.84241H69.3271V11.4909H67.3392V15.6444C67.3392 15.9461 67.3877 16.2047 67.4847 16.4202C67.5817 16.6249 67.7379 16.7865 67.9534 16.905C68.1689 17.0128 68.4491 17.0667 68.7938 17.0667C68.88 17.0667 68.977 17.0612 69.0847 17.0505C69.1925 17.0397 69.2948 17.0289 69.3918 17.0182V18.5858C69.241 18.6074 69.0739 18.6289 68.8907 18.6505C68.7076 18.6721 68.546 18.6828 68.4059 18.6828ZM73.7133 18.7798C73.1206 18.7798 72.5981 18.6774 72.1456 18.4727C71.7038 18.2572 71.359 17.9663 71.1113 17.6C70.8634 17.2229 70.7396 16.7812 70.7396 16.2747C70.7396 15.8006 70.8419 15.3751 71.0466 14.998C71.2621 14.6208 71.5907 14.303 72.0325 14.0444C72.4742 13.7858 73.0291 13.6027 73.6971 13.4949L76.7355 12.9939V14.4323L74.0527 14.901C73.5678 14.9872 73.2123 15.1434 72.986 15.3697C72.7598 15.5852 72.6466 15.8653 72.6466 16.2101C72.6466 16.5441 72.7705 16.8188 73.0183 17.0343C73.2769 17.239 73.6055 17.3414 74.0042 17.3414C74.4998 17.3414 74.9307 17.2337 75.2971 17.0182C75.6742 16.8027 75.9651 16.5172 76.1699 16.1616C76.3745 15.7953 76.4769 15.3913 76.4769 14.9495V12.703C76.4769 12.2721 76.3153 11.9218 75.9921 11.6525C75.6796 11.3723 75.2594 11.2323 74.7315 11.2323C74.2466 11.2323 73.821 11.3616 73.4547 11.6202C73.0992 11.868 72.8351 12.1913 72.6628 12.5899L71.1436 11.8303C71.3052 11.3993 71.5691 11.0222 71.9355 10.699C72.3018 10.365 72.7274 10.1064 73.2123 9.92322C73.7079 9.74003 74.2305 9.64847 74.78 9.64847C75.4695 9.64847 76.0782 9.77776 76.6062 10.0363C77.1449 10.2949 77.5598 10.6559 77.8507 11.1192C78.1523 11.5717 78.3032 12.0996 78.3032 12.703V18.5858H76.5577V17.002L76.9295 17.0505C76.7247 17.406 76.4608 17.7131 76.1375 17.9717C75.8251 18.2303 75.4641 18.4296 75.0547 18.5697C74.656 18.7097 74.2089 18.7798 73.7133 18.7798Z" fill="black"/>
</g>
<defs>
<clipPath id="clip0_85_201">
<rect width="80" height="24.2424" fill="white"/>
</clipPath>
</defs>
</svg>
