<?xml version="1.0" encoding="UTF-8" standalone="no"?><!DOCTYPE svg PUBLIC "-//W3C//DTD SVG 1.1//EN" "http://www.w3.org/Graphics/SVG/1.1/DTD/svg11.dtd"><svg width="100%" height="100%" viewBox="0 0 3334 3334" version="1.1" xmlns="http://www.w3.org/2000/svg" xmlns:xlink="http://www.w3.org/1999/xlink" xml:space="preserve" xmlns:serif="http://www.serif.com/" style="fill-rule:evenodd;clip-rule:evenodd;stroke-linejoin:round;stroke-miterlimit:2;"><g id="XMLID_826_"><path id="XMLID_827_" d="M3257.77,617.075c-52.365,23.226 -106.204,42.828 -161.215,58.742c65.129,-73.656 114.785,-160.322 145.097,-255.161c6.796,-21.258 -0.247,-44.527 -17.721,-58.43c-17.451,-13.914 -41.698,-15.581 -60.913,-4.194c-116.828,69.291 -242.871,119.086 -375.033,148.205c-133.129,-130.086 -313.946,-204.119 -500.871,-204.119c-394.57,0 -715.58,321 -715.58,715.559c-0,31.076 1.967,61.979 5.86,92.452c-489.624,-42.989 -944.817,-283.645 -1257.4,-667.075c-11.14,-13.667 -28.301,-21.032 -45.871,-19.624c-17.581,1.376 -33.376,11.29 -42.258,26.527c-63.398,108.785 -96.914,233.204 -96.914,359.796c-0,172.419 61.559,336.01 170.301,463.838c-33.064,-11.451 -65.15,-25.763 -95.774,-42.763c-16.441,-9.151 -36.506,-9.011 -52.839,0.355c-16.344,9.365 -26.591,26.591 -27.021,45.419c-0.076,3.172 -0.076,6.344 -0.076,9.559c0,257.366 138.517,489.076 350.291,615.366c-18.194,-1.817 -36.377,-4.452 -54.441,-7.903c-18.624,-3.559 -37.774,2.967 -50.333,17.172c-12.581,14.193 -16.742,33.978 -10.947,52.043c78.387,244.731 280.205,424.742 524.183,479.623c-202.355,126.742 -433.763,193.129 -676.688,193.129c-50.688,0 -101.667,-2.978 -151.559,-8.881c-24.785,-2.947 -48.484,11.688 -56.925,35.258c-8.441,23.58 0.505,49.871 21.591,63.387c312.076,200.097 672.925,305.86 1043.52,305.86c728.537,0 1184.29,-343.548 1438.32,-631.753c316.774,-359.365 498.452,-835.032 498.452,-1305.02c-0,-19.635 -0.301,-39.463 -0.903,-59.226c124.978,-94.161 232.58,-208.118 320.139,-339.097c13.301,-19.892 11.861,-46.183 -3.548,-64.494c-15.387,-18.323 -41.032,-24.248 -62.925,-14.549Z" style="fill:#fff;fill-rule:nonzero;"/></g></svg>