<svg width="1920" height="1080" viewBox="0 0 1920 1080" fill="none" xmlns="http://www.w3.org/2000/svg">
<rect width="1920" height="1080" fill="#111111"/>
<path d="M693.277 486.394C678.003 492.169 665.321 504.72 655.365 516.759C630.075 547.341 603.522 523.075 603 522.534C603.928 540.155 632.445 592.872 696.101 572.806C679.789 571.42 656.352 564.222 644.38 537.207C644.826 537.425 665.224 545.55 688.959 523.396C703.64 509.693 717.561 513.102 733.203 516.582C741.293 518.382 745.615 513.988 745.615 513.988C721.537 508.579 709.468 491.731 709.468 491.731C749.016 490.398 767.485 514.137 772.289 526.077C764.182 496.285 740.03 482.302 715.738 482.302C708.1 482.303 700.447 483.685 693.277 486.394ZM753.418 518.875L752.933 519.024L753.081 519.51C753.97 522.45 757.058 524.107 759.977 523.213L760.461 523.064L760.313 522.577C759.588 520.177 757.398 518.633 755.029 518.631C754.496 518.631 753.954 518.711 753.418 518.875ZM761.633 540.765C751.345 539.276 744.222 531.376 725.944 548.217C712.348 560.743 692.675 558.858 682.564 552.682C682.564 552.682 687.822 564.443 703.995 567.297C729.141 571.732 744.148 555.06 744.148 555.06C744.148 555.06 743.924 570.411 722.599 582.871C706.674 592.174 684.684 587.23 684.141 586.682C687.273 589.826 713.5 605.832 741.81 591.292C770.645 576.482 774.422 549.115 773.737 535.357C773.737 535.357 772.289 542.307 761.633 540.765Z" fill="url(#paint0_linear_305_20)"/>
<path d="M1150.35 484.619C1146.07 486.367 1142.24 488.701 1138.88 491.629C1135.51 494.555 1132.7 498.022 1130.46 502.027C1128.22 506.032 1126.64 510.244 1125.72 514.658L1124.65 519.588H1114.85L1111.49 535.301H1121.28L1108.58 595.996H1129.08L1141.79 535.301H1162.44L1149.74 595.996H1170.25L1186.47 519.588H1145.15L1146.37 513.888C1147.19 510.09 1148.9 506.752 1151.5 503.875C1154.1 501.001 1157.55 499.562 1161.83 499.562C1165.2 499.562 1168.44 500.281 1171.55 501.719C1174.66 503.158 1177.29 505.057 1179.43 507.417L1190.75 492.014C1187.08 489.139 1183.1 486.752 1178.82 484.85C1174.53 482.951 1169.63 482 1164.13 482C1159.23 482 1154.64 482.874 1150.35 484.619ZM1039.1 483.541L1015.38 595.996H1033.29L1036.19 581.977C1037.73 586.805 1040.43 590.603 1044.3 593.377C1048.18 596.148 1053.13 597.536 1059.15 597.536C1064.96 597.536 1070.62 596.173 1076.13 593.453C1081.64 590.734 1086.51 587.061 1090.75 582.44C1094.98 577.817 1098.37 572.426 1100.92 566.265C1103.47 560.102 1104.75 553.531 1104.75 546.546C1104.75 542.028 1104.19 537.792 1103.07 533.837C1101.94 529.885 1100.26 526.419 1098.02 523.439C1095.77 520.461 1093.04 518.125 1089.83 516.43C1086.62 514.736 1082.87 513.888 1078.58 513.888C1073.07 513.888 1067.8 515.301 1062.74 518.125C1057.69 520.95 1053.38 524.724 1049.81 529.447L1059.61 483.541H1039.1ZM1047.14 576.123C1044.33 573.557 1042.62 570.323 1042.01 566.418L1046.14 547.163C1048.79 542.748 1052.13 539.025 1056.16 535.994C1060.19 532.967 1064.3 531.449 1068.48 531.449C1070.83 531.449 1072.92 531.965 1074.76 532.989C1076.59 534.018 1078.13 535.404 1079.35 537.149C1080.57 538.897 1081.51 540.923 1082.18 543.235C1082.84 545.544 1083.17 547.986 1083.17 550.551C1083.17 554.455 1082.46 558.176 1081.03 561.72C1079.6 565.263 1077.69 568.396 1075.29 571.116C1072.89 573.839 1070.17 575.995 1067.11 577.586C1064.05 579.18 1060.88 579.974 1057.62 579.974C1053.43 579.974 1049.94 578.691 1047.14 576.123ZM877.552 484.691C853.683 488.799 849.857 504.672 837.97 501.187C829.759 498.78 828.323 488.955 828.323 488.955C828.323 488.955 818.613 505.205 831.899 517.077C842.716 526.743 841.962 535.268 841.962 535.268C841.962 535.268 837.334 525.282 825.945 524.801C824.312 524.733 822.467 524.981 820.536 525.231C814.96 525.951 808.672 526.671 804.73 519.737C804.73 519.737 804.228 536.704 822.508 540.644C830.054 542.269 833.731 548.899 832.654 553.924C831.144 560.97 812.543 556.755 808.081 547.616C808.081 547.616 808.755 564.138 824.184 571.144C827.048 572.444 827.188 577.129 823.997 578.9C818.294 582.065 811.466 572.088 811.466 572.088C814.697 595.996 833.126 595.996 833.126 595.996H854.091L861.742 559.332H880.564L893.419 595.996H917.291L902.6 554.865C906.272 553.324 909.663 551.22 912.777 548.549C915.887 545.879 918.591 542.849 920.887 539.459C923.183 536.072 924.992 532.451 926.32 528.599C927.645 524.748 928.309 520.821 928.309 516.816C928.309 513.017 928.052 509.168 926.549 505.646C921.966 494.912 910.678 483.619 889.464 483.618C885.795 483.617 881.832 483.955 877.552 484.691ZM873.219 505.261H896.785C899.539 505.261 901.86 506.571 903.747 509.191C905.634 511.808 906.579 515.07 906.579 518.972C906.579 521.848 906.093 524.594 905.125 527.213C904.155 529.832 902.907 532.143 901.376 534.145C899.846 536.148 898.086 537.741 896.097 538.921C894.107 540.103 892.091 540.693 890.052 540.693H865.721L873.219 505.261ZM1268.57 517.893C1262.39 520.565 1257.04 524.158 1252.5 528.677C1247.96 533.196 1244.39 538.459 1241.79 544.467C1239.18 550.474 1237.88 556.817 1237.88 563.491C1237.88 568.421 1238.62 572.965 1240.1 577.124C1241.58 581.283 1243.75 584.88 1246.61 587.907C1249.46 590.938 1252.91 593.299 1256.94 594.993C1260.96 596.688 1265.53 597.536 1270.63 597.536C1274.61 597.536 1278.54 597.02 1282.42 595.996C1286.29 594.97 1289.99 593.531 1293.51 591.682C1297.03 589.833 1300.27 587.601 1303.23 584.981C1306.19 582.362 1308.68 579.511 1310.73 576.431L1294.51 571.347C1292.36 574.841 1289.48 577.562 1285.86 579.511C1282.24 581.464 1278.38 582.44 1274.31 582.44C1269 582.44 1265.12 580.745 1262.67 577.355C1260.23 573.966 1259 569.551 1259 564.107V562.104C1261.14 562.311 1263.18 562.413 1265.12 562.413H1270.78C1301.59 562.413 1317 553.736 1317 536.379C1317 529.088 1314.42 523.517 1309.27 519.665C1304.12 515.813 1297.21 513.888 1288.54 513.888C1281.39 513.888 1274.74 515.225 1268.57 517.893ZM1261.45 549.165C1262.37 546.393 1263.59 543.773 1265.12 541.308C1266.66 538.843 1268.41 536.687 1270.4 534.838C1272.39 532.989 1274.66 531.527 1277.21 530.448C1279.76 529.369 1282.52 528.831 1285.48 528.831C1289.05 528.831 1291.95 529.577 1294.2 531.064C1296.44 532.554 1297.57 534.788 1297.57 537.765C1297.57 539.613 1297.11 541.231 1296.19 542.618C1295.27 544.004 1293.76 545.213 1291.67 546.238C1289.58 547.266 1286.83 548.036 1283.41 548.549C1279.99 549.064 1275.84 549.319 1270.94 549.319H1266.19C1264.66 549.319 1263.08 549.269 1261.45 549.165ZM953.865 518.047C948.561 520.821 943.893 524.517 939.864 529.139C935.834 533.76 932.619 539.128 930.224 545.237C927.826 551.349 926.627 557.741 926.627 564.415C926.627 569.036 927.263 573.376 928.54 577.432C929.815 581.491 931.677 585.007 934.126 587.985C936.574 590.965 939.558 593.299 943.077 594.993C946.598 596.688 950.6 597.536 955.092 597.536C960.395 597.536 965.673 596.227 970.928 593.608C976.182 590.988 980.747 587.114 984.626 581.977C984.012 584.649 983.707 586.598 983.707 587.83C983.707 590.912 984.75 593.222 986.844 594.762C988.934 596.302 991.766 597.073 995.336 597.073C996.355 597.073 997.557 596.969 998.933 596.765C1000.31 596.558 1001.92 596.302 1003.75 595.996L1007.43 578.433C1004.98 578.333 1003.75 577.202 1003.75 575.045C1003.75 574.328 1003.91 573.403 1004.21 572.272L1016.15 515.583H995.644L992.584 529.447C991.152 524.826 988.501 521.077 984.626 518.201C980.747 515.327 976.054 513.888 970.547 513.888C964.731 513.888 959.171 515.274 953.865 518.047ZM952.489 574.582C949.633 570.989 948.205 566.521 948.205 561.18C948.205 557.484 948.893 553.863 950.27 550.32C951.65 546.778 953.483 543.595 955.778 540.77C958.076 537.946 960.752 535.685 963.812 533.992C966.873 532.297 970.034 531.449 973.302 531.449C977.177 531.449 980.595 532.94 983.555 535.917C986.511 538.897 988.296 542.644 988.91 547.163L984.931 566.418C983.808 568.37 982.428 570.169 980.799 571.81C979.167 573.454 977.434 574.89 975.597 576.123C973.76 577.355 971.846 578.306 969.857 578.972C967.867 579.642 966.006 579.974 964.27 579.974C959.272 579.974 955.345 578.179 952.489 574.582ZM1229.93 519.357C1225.13 522.592 1220.79 526.982 1216.92 532.528L1220.59 515.274H1201.77L1184.78 595.996H1205.29L1215.54 547.163C1218.5 542.541 1222.55 539.074 1227.71 536.764C1232.86 534.454 1238.34 533.247 1244.16 533.144L1247.98 514.813C1247.58 514.711 1247.11 514.635 1246.61 514.582C1246.1 514.531 1245.33 514.505 1244.31 514.505C1239.51 514.505 1234.72 516.122 1229.93 519.357Z" fill="url(#paint1_linear_305_20)"/>
<defs>
<linearGradient id="paint0_linear_305_20" x1="480.758" y1="555.351" x2="1242.49" y2="215.923" gradientUnits="userSpaceOnUse">
<stop stop-color="#FBD204"/>
<stop offset="0.525064" stop-color="#F67514"/>
<stop offset="0.553711" stop-color="#F67514"/>
<stop offset="0.557573" stop-color="#F67514"/>
<stop offset="0.993008" stop-color="#EE4136"/>
<stop offset="1" stop-color="#EE4136"/>
</linearGradient>
<linearGradient id="paint1_linear_305_20" x1="737.147" y1="539.768" x2="1375.16" y2="539.768" gradientUnits="userSpaceOnUse">
<stop stop-color="#FBD204"/>
<stop offset="0.430509" stop-color="#F67514"/>
<stop offset="0.512607" stop-color="#F67514"/>
<stop offset="0.516831" stop-color="#F67514"/>
<stop offset="0.993008" stop-color="#EE4136"/>
<stop offset="1" stop-color="#EE4136"/>
</linearGradient>
</defs>
</svg>
