<svg width="714" height="118" viewBox="0 0 714 118" fill="none" xmlns="http://www.w3.org/2000/svg">
<path d="M90.2766 5.3936C75.0026 11.1686 62.3215 23.7201 52.3653 35.759C27.0747 66.3408 0.521528 42.0748 0 41.5341C0.927781 59.1553 29.445 111.872 93.1014 91.8056C76.7886 90.4201 53.3524 83.2221 41.3798 56.207C41.8262 56.4246 62.2241 64.5496 85.959 42.3958C100.64 28.693 114.561 32.1021 130.203 35.5822C138.293 37.3815 142.615 32.9877 142.615 32.9877C118.537 27.5788 106.468 10.7315 106.468 10.7315C146.016 9.39759 164.485 33.1375 169.289 45.0772C161.182 15.2852 137.03 1.30176 112.738 1.30176C105.1 1.30288 97.4471 2.68522 90.2766 5.3936ZM150.418 37.8747L149.933 38.0236L150.081 38.5102C150.97 41.4498 154.058 43.107 156.977 42.2133L157.461 42.0637L157.313 41.5768C156.588 39.1772 154.398 37.6328 152.029 37.6314C151.496 37.6314 150.954 37.7105 150.418 37.8747ZM158.633 59.7651C148.345 58.2755 141.222 50.3758 122.944 67.2175C109.348 79.7432 89.6746 77.8583 79.5642 71.682C79.5642 71.682 84.8222 83.4428 100.995 86.2967C126.141 90.7321 141.148 74.0604 141.148 74.0604C141.148 74.0604 140.924 89.4105 119.599 101.871C103.674 111.174 81.684 106.23 81.1412 105.682C84.2735 108.826 110.5 124.832 138.81 110.292C167.645 95.4819 171.422 68.1153 170.738 54.3572C170.738 54.3572 169.289 61.3071 158.633 59.7651Z" fill="url(#paint0_linear_305_15)"/>
<path d="M547.353 3.61938C543.069 5.36676 539.243 7.70108 535.877 10.6291C532.512 13.5549 529.704 17.0215 527.462 21.0266C525.216 25.0317 523.635 29.2441 522.717 33.6582L521.646 38.5882H511.851L508.485 54.3009H518.277L505.577 114.996H526.082L538.785 54.3009H559.443L546.743 114.996H567.248L583.469 38.5882H542.151L543.374 32.8876C544.192 29.0897 545.901 25.7516 548.501 22.8754C551.104 20.0014 554.545 18.5616 558.829 18.5616C562.198 18.5616 565.436 19.2815 568.548 20.719C571.661 22.1577 574.288 24.0572 576.43 26.4174L587.753 11.0145C584.083 8.13935 580.104 5.75203 575.816 3.85032C571.532 1.95086 566.635 1 561.127 1C556.23 1 551.637 1.87426 547.353 3.61938ZM436.101 2.54122L412.383 114.996H430.285L433.193 100.977C434.725 105.805 437.425 109.603 441.304 112.377C445.179 115.148 450.128 116.536 456.149 116.536C461.965 116.536 467.625 115.173 473.132 112.453C478.643 109.734 483.513 106.061 487.748 101.44C491.98 96.817 495.373 91.4262 497.924 85.2648C500.472 79.1021 501.751 72.5306 501.751 65.5457C501.751 61.028 501.189 56.7918 500.066 52.8374C498.943 48.8854 497.259 45.419 495.017 42.4388C492.774 39.4614 490.043 37.1247 486.83 35.4303C483.617 33.7359 479.866 32.8876 475.582 32.8876C470.075 32.8876 464.796 34.3015 459.743 37.1247C454.693 39.9504 450.385 43.7243 446.815 48.4471L456.606 2.54122H436.101ZM444.135 95.1227C441.328 92.5572 439.623 89.3226 439.009 85.4179L443.141 66.1631C445.792 61.7478 449.133 58.0245 453.164 54.994C457.192 51.9666 461.299 50.4493 465.483 50.4493C467.829 50.4493 469.919 50.965 471.756 51.9892C473.593 53.0179 475.125 54.4037 476.349 56.1487C477.572 57.8972 478.515 59.923 479.177 62.2347C479.842 64.544 480.175 66.9856 480.175 69.5507C480.175 73.4555 479.458 77.1756 478.03 80.7201C476.602 84.2632 474.688 87.3965 472.293 90.116C469.895 92.8391 467.167 94.9953 464.106 96.5859C461.046 98.1803 457.882 98.9744 454.617 98.9744C450.433 98.9744 446.939 97.6913 444.135 95.1227ZM274.552 3.69148C250.683 7.79909 246.857 23.6719 234.97 20.1873C226.759 17.7797 225.323 7.95457 225.323 7.95457C225.323 7.95457 215.613 24.2048 228.899 36.0769C239.716 45.7432 238.962 54.2683 238.962 54.2683C238.962 54.2683 234.334 44.2821 222.945 43.801C221.312 43.7334 219.467 43.9812 217.536 44.2314C211.96 44.9512 205.672 45.6713 201.73 38.7371C201.73 38.7371 201.228 55.7038 219.508 59.6436C227.054 61.2692 230.731 67.8991 229.654 72.9238C228.144 79.9698 209.543 75.7551 205.081 66.616C205.081 66.616 205.755 83.1377 221.184 90.1441C224.048 91.4442 224.188 96.1288 220.997 97.8999C215.294 101.065 208.466 91.0881 208.466 91.0881C211.697 114.996 230.126 114.996 230.126 114.996H251.091L258.742 78.3316H277.564L290.419 114.996H314.291L299.6 73.8647C303.272 72.3244 306.663 70.2202 309.777 67.5489C312.887 64.8786 315.591 61.8491 317.887 58.4594C320.183 55.0718 321.992 51.4506 323.32 47.5989C324.645 43.7479 325.309 39.8206 325.309 35.8156C325.309 32.0167 325.052 28.1682 323.549 24.6464C318.966 13.9121 307.678 2.61894 286.464 2.61782C282.795 2.61669 278.832 2.95468 274.552 3.69148ZM270.219 24.2611H293.785C296.539 24.2611 298.86 25.5714 300.747 28.1907C302.634 30.8078 303.579 34.0705 303.579 37.9718C303.579 40.8483 303.093 43.5938 302.125 46.2131C301.155 48.8323 299.907 51.1431 298.376 53.1452C296.846 55.1481 295.086 56.7411 293.097 57.9208C291.107 59.1025 289.091 59.6929 287.052 59.6929H262.721L270.219 24.2611ZM665.565 36.8928C659.392 39.5648 654.037 43.1576 649.5 47.6766C644.96 52.1964 641.386 57.4588 638.787 63.4671C636.184 69.4744 634.884 75.8169 634.884 82.4911C634.884 87.4211 635.622 91.9648 637.102 96.1243C638.582 100.283 640.749 103.88 643.608 106.907C646.461 109.938 649.906 112.299 653.937 113.993C657.964 115.688 662.529 116.536 667.631 116.536C671.61 116.536 675.537 116.02 679.416 114.996C683.291 113.97 686.992 112.531 690.51 110.682C694.028 108.833 697.266 106.601 700.226 103.981C703.186 101.362 705.685 98.5114 707.726 95.4312L691.505 90.3468C689.363 93.8407 686.479 96.5623 682.857 98.5114C679.235 100.464 675.385 101.44 671.305 101.44C665.999 101.44 662.124 99.7452 659.673 96.3551C657.226 92.9664 656.003 88.5511 656.003 83.1072V81.1043C658.145 81.3115 660.183 81.4128 662.124 81.4128H667.784C698.593 81.4128 714 72.7357 714 55.3793C714 48.0879 711.421 42.5166 706.27 38.6649C701.12 34.8129 694.205 32.8876 685.537 32.8876C678.393 32.8876 671.738 34.2248 665.565 36.8928ZM658.45 68.1653C659.368 65.3926 660.592 62.773 662.124 60.3082C663.656 57.843 665.413 55.6868 667.402 53.838C669.392 51.9892 671.662 50.527 674.213 49.4477C676.761 48.3694 679.516 47.8307 682.476 47.8307C686.046 47.8307 688.954 48.5766 691.2 50.0637C693.443 51.5543 694.566 53.7883 694.566 56.7651C694.566 58.6135 694.108 60.2315 693.186 61.6183C692.268 63.0041 690.763 64.2129 688.673 65.2382C686.58 66.2658 683.828 67.0363 680.41 67.5489C676.989 68.0636 672.837 68.3194 667.94 68.3194H663.195C661.663 68.3194 660.082 68.2687 658.45 68.1653ZM350.865 37.0469C345.561 39.8206 340.893 43.5171 336.864 48.1386C332.834 52.7597 329.619 58.128 327.224 64.2365C324.826 70.3486 323.627 76.7407 323.627 83.415C323.627 88.0361 324.263 92.3761 325.54 96.4318C326.815 100.491 328.677 104.007 331.126 106.985C333.574 109.965 336.558 112.299 340.077 113.993C343.598 115.688 347.6 116.536 352.092 116.536C357.395 116.536 362.673 115.227 367.928 112.608C373.182 109.988 377.747 106.114 381.626 100.977C381.012 103.649 380.707 105.598 380.707 106.83C380.707 109.912 381.75 112.222 383.844 113.762C385.934 115.302 388.766 116.073 392.336 116.073C393.355 116.073 394.557 115.969 395.933 115.765C397.309 115.558 398.918 115.302 400.755 114.996L404.425 97.4334C401.978 97.3331 400.755 96.2017 400.755 94.0454C400.755 93.3281 400.907 92.4028 401.212 91.2717L413.149 34.5831H392.644L389.584 48.4471C388.152 43.8257 385.501 40.0774 381.626 37.2014C377.747 34.3274 373.054 32.8876 367.547 32.8876C361.731 32.8876 356.171 34.2744 350.865 37.0469ZM349.489 93.5825C346.633 89.9887 345.205 85.5206 345.205 80.1804C345.205 76.4839 345.893 72.863 347.27 69.3199C348.65 65.7778 350.483 62.5953 352.778 59.7696C355.076 56.9462 357.752 54.6851 360.812 52.9918C363.873 51.2975 367.034 50.4493 370.302 50.4493C374.177 50.4493 377.595 51.9396 380.555 54.9173C383.511 57.8972 385.296 61.6444 385.91 66.1631L381.931 85.4179C380.808 87.3704 379.428 89.1686 377.799 90.8098C376.167 92.4538 374.434 93.8899 372.597 95.1227C370.76 96.3551 368.846 97.306 366.857 97.9717C364.867 98.6422 363.006 98.9744 361.27 98.9744C356.272 98.9744 352.345 97.1787 349.489 93.5825ZM626.926 38.3574C622.129 41.5917 617.793 45.9823 613.918 51.5283L617.592 34.2744H598.768L581.785 114.996H602.29L612.542 66.1631C615.499 61.5406 619.554 58.0742 624.708 55.7645C629.859 53.4538 635.342 52.2471 641.158 52.1436L644.984 33.8125C644.575 33.7111 644.114 33.6345 643.608 33.5816C643.095 33.5309 642.329 33.5049 641.31 33.5049C636.513 33.5049 631.72 35.1216 626.926 38.3574Z" fill="url(#paint1_linear_305_15)"/>
<defs>
<linearGradient id="paint0_linear_305_15" x1="-122.242" y1="74.3506" x2="639.491" y2="-265.077" gradientUnits="userSpaceOnUse">
<stop stop-color="#FBD204"/>
<stop offset="0.525064" stop-color="#F67514"/>
<stop offset="0.553711" stop-color="#F67514"/>
<stop offset="0.557573" stop-color="#F67514"/>
<stop offset="0.993008" stop-color="#EE4136"/>
<stop offset="1" stop-color="#EE4136"/>
</linearGradient>
<linearGradient id="paint1_linear_305_15" x1="134.147" y1="58.7679" x2="772.159" y2="58.7679" gradientUnits="userSpaceOnUse">
<stop stop-color="#FBD204"/>
<stop offset="0.430509" stop-color="#F67514"/>
<stop offset="0.512607" stop-color="#F67514"/>
<stop offset="0.516831" stop-color="#F67514"/>
<stop offset="0.993008" stop-color="#EE4136"/>
<stop offset="1" stop-color="#EE4136"/>
</linearGradient>
</defs>
</svg>
