<svg xmlns="http://www.w3.org/2000/svg" xmlns:xlink="http://www.w3.org/1999/xlink" width="1920" height="1080" viewBox="0 0 1920 1080"><defs><clipPath id="b"><rect width="1920" height="1080"/></clipPath></defs><g id="a" clip-path="url(#b)"><rect width="1920" height="1080" fill="#141c26"/><text transform="translate(960 400)" fill="#e4f3ff" font-size="140" font-family="PlusJakartaSans-Medium, Plus Jakarta Sans" font-weight="500"><tspan x="-579.74" y="0">We Are Providing </tspan><tspan x="-782.6" y="170">Good Yet Fast Services </tspan></text><text transform="translate(100 75)" fill="#ececec" font-size="24" font-family="PlusJakartaSans-Bold, Plus Jakarta Sans" font-weight="700"><tspan x="0" y="0">AS Corp</tspan></text><text transform="translate(1762 72)" fill="#ececec" font-size="16" font-family="PlusJakartaSans-Medium, Plus Jakarta Sans" font-weight="500"><tspan x="0" y="0" xml:space="preserve"> About</tspan></text><g transform="translate(-120 3)"><text transform="translate(993 69)" fill="#ececec" font-size="16" font-family="PlusJakartaSans-Medium, Plus Jakarta Sans" font-weight="500"><tspan x="0" y="0">Services</tspan></text><text transform="translate(1114 69)" fill="#ececec" font-size="16" font-family="PlusJakartaSans-Medium, Plus Jakarta Sans" font-weight="500"><tspan x="0" y="0">Clients</tspan></text></g><g transform="translate(-71 -3193)"><rect width="141" height="45" rx="22.5" transform="translate(960 3957)" fill="#fff"/><text transform="translate(990 3986)" fill="#141c26" font-size="16" font-family="PlusJakartaSans-SemiBold, Plus Jakarta Sans" font-weight="600"><tspan x="0" y="0">Let&apos;s Work</tspan></text></g><text transform="translate(960 682)" fill="#ececec" font-size="20" font-family="PlusJakartaSans-Regular, Plus Jakarta Sans"><tspan x="-259.78" y="0">We are production house that can give solutions to your</tspan><tspan x="-141.14" y="28">business that need us in there.</tspan></text><g transform="translate(-679 117)"><g transform="translate(-131 762)"><text transform="translate(1667 72)" fill="#ececec" font-size="16" font-family="PlusJakartaSans-Regular, Plus Jakarta Sans"><tspan x="0" y="0">Instagram</tspan></text><g transform="translate(1636 55)"><path d="M15.2,0H5.8A5.8,5.8,0,0,0,0,5.8V15.2A5.8,5.8,0,0,0,5.8,21H15.2A5.8,5.8,0,0,0,21,15.2V5.8A5.8,5.8,0,0,0,15.2,0Zm3.932,15.2A3.937,3.937,0,0,1,15.2,19.137H5.8A3.936,3.936,0,0,1,1.863,15.2V5.8A3.936,3.936,0,0,1,5.8,1.863H15.2A3.937,3.937,0,0,1,19.137,5.8V15.2Z" fill="#fff"/><path d="M46.379,40.97a5.411,5.411,0,1,0,5.411,5.411A5.417,5.417,0,0,0,46.379,40.97Zm0,8.959a3.548,3.548,0,1,1,3.548-3.548A3.552,3.552,0,0,1,46.379,49.929Z" transform="translate(-35.879 -35.881)" fill="#fff"/><path d="M120.287,28.251a1.366,1.366,0,1,0,.966.4A1.372,1.372,0,0,0,120.287,28.251Z" transform="translate(-104.149 -24.742)" fill="#fff"/></g></g><g transform="translate(41 762)"><text transform="translate(1667 72)" fill="#ececec" font-size="16" font-family="PlusJakartaSans-Regular, Plus Jakarta Sans"><tspan x="0" y="0">YouTube</tspan></text><g transform="translate(1636 12.194)"><path d="M20.181,47.186c-.758-.9-2.158-1.269-4.83-1.269h-9.7c-2.734,0-4.157.391-4.912,1.351C0,48.2,0,49.581,0,51.489v3.636C0,58.82.874,60.7,5.649,60.7h9.7c2.318,0,3.6-.324,4.433-1.12C20.636,58.761,21,57.429,21,55.124V51.489C21,49.477,20.943,48.091,20.181,47.186Zm-6.7,6.623-4.406,2.3a.677.677,0,0,1-.991-.6V50.92a.677.677,0,0,1,.99-.6l4.406,2.288a.677.677,0,0,1,0,1.2Z" transform="translate(0 0)" fill="#fff"/></g></g></g></g></svg>